<svg width="1920" height="890" viewBox="0 0 1920 890" fill="none" xmlns="http://www.w3.org/2000/svg">
<path d="M0 762.599L40.1067 789.7C80.4267 817.006 160.64 871.208 240.64 874.673C320.64 878.137 400.427 830.454 480.427 820.266C560.427 810.077 640.64 837.383 720.64 859.39C800.64 881.397 880.427 898.514 960.427 885.472C1040.43 872.635 1120.64 829.843 1200.64 801.315C1280.64 772.788 1360.43 758.524 1440.43 778.493C1520.43 798.666 1600.64 852.869 1680.64 848.182C1760.64 843.496 1840.43 779.512 1880.11 747.724L1920 715.732V0C1280 0 640 0 0 0L0 762.599Z" fill="#898577"/>
<path d="M1919.5 419.899L1873.66 412.205C1827.81 404.51 1736.13 389.121 1644.87 408.247C1553.4 427.154 1462.56 480.795 1371.09 473.321C1279.83 466.066 1188.15 397.915 1096.89 387.362C1005.42 376.59 914.583 423.636 823.111 452.216C731.852 480.796 640.166 490.908 548.907 488.71C457.435 486.511 366.602 472.002 275.13 467.825C183.871 463.868 92.1852 470.463 46.3424 473.761L0.499633 477.058L0.499591 0.000350957L46.3424 0.000346947C92.1851 0.000342938 183.871 0.000334918 275.13 0.000326936C366.602 0.000318935 457.435 0.00031099 548.907 0.000302989C640.166 0.000295007 731.852 0.000286987 823.111 0.000279005C914.583 0.000271004 1005.42 0.000263059 1096.89 0.000255058C1188.15 0.000247076 1279.83 0.000239056 1371.09 0.000231074C1462.56 0.000223073 1553.4 0.000215128 1644.87 0.000207127C1736.13 0.000199145 1827.81 0.000191125 1873.66 0.000187115L1919.5 0.000183105L1919.5 419.899Z" fill="#CEC8B3"/>
<path d="M1919.5 360.542L1873.66 358.783C1827.81 356.804 1736.13 353.287 1644.87 348.01C1553.4 342.954 1462.56 336.359 1371.09 334.82C1279.83 333.501 1188.15 337.018 1096.89 340.316C1005.42 343.614 914.583 346.692 823.111 363.4C731.852 380.327 640.166 411.105 548.907 399.014C457.435 386.923 366.602 331.962 275.13 332.402C183.871 332.622 92.1852 388.462 46.3424 416.162L0.499634 444.082L0.499595 0.000259404L46.3424 0.000255395C92.1851 0.000251385 183.871 0.000243365 275.13 0.000235383C366.602 0.000227382 457.435 0.000219437 548.907 0.000211436C640.166 0.000203454 731.852 0.000195434 823.111 0.000187452C914.583 0.000179451 1005.42 0.000171506 1096.89 0.000163505C1188.15 0.000155523 1279.83 0.000147503 1371.09 0.000139521C1462.56 0.00013152 1553.4 0.000123575 1644.87 0.000115574C1736.13 0.000107592 1827.81 9.95723e-05 1873.66 9.55625e-05L1919.5 9.15527e-05L1919.5 360.542Z" fill="#E5DEC7"/>
<path d="M1919.5 303.382L1873.66 289.093C1827.81 274.803 1736.13 246.223 1644.87 250.62C1553.4 255.017 1462.56 292.39 1371.09 311.077C1279.83 329.764 1188.15 329.764 1096.89 306.021C1005.42 282.058 914.583 234.572 823.111 234.132C731.852 233.693 640.166 280.739 548.907 290.192C457.435 299.645 366.602 271.945 275.13 264.47C183.871 257.216 92.1852 270.406 46.3424 277.002L0.49963 283.597L0.499605 0.000228887L46.3424 0.000224877C92.1852 0.000220867 183.871 0.000212848 275.13 0.000204865C366.602 0.000196865 457.435 0.00018892 548.907 0.000180919C640.166 0.000172936 731.852 0.000164917 823.111 0.000156934C914.583 0.000148934 1005.42 0.000140989 1096.89 0.000132988C1188.15 0.000125005 1279.83 0.000116986 1371.09 0.000109003C1462.56 0.000101003 1553.4 9.30575e-05 1644.87 8.50566e-05C1736.13 7.70743e-05 1827.81 6.90547e-05 1873.66 6.50449e-05L1919.5 6.10352e-05L1919.5 303.382Z" fill="#F7F5EE"/>
<path d="M1919.5 250.62L1873.66 241.167C1827.81 231.494 1736.13 212.588 1644.87 191.922C1553.4 171.477 1462.56 149.493 1371.09 140.259C1279.83 131.246 1188.15 134.763 1096.89 152.131C1005.42 169.279 914.583 200.057 823.111 205.553C731.852 211.049 640.166 191.263 548.907 174.775C457.435 158.287 366.602 145.096 275.13 156.528C183.871 167.74 92.1852 203.794 46.3424 221.601L0.499633 239.628L0.499612 0.000198369L46.3424 0.00019436C92.1852 0.00019035 183.871 0.00018233 275.13 0.000174348C366.602 0.000166347 457.435 0.000158402 548.907 0.000150401C640.166 0.000142419 731.852 0.000134399 823.111 0.000126417C914.583 0.000118416 1005.42 0.000110471 1096.89 0.00010247C1188.15 9.44877e-05 1279.83 8.64682e-05 1371.09 7.84859e-05C1462.56 7.04849e-05 1553.4 6.254e-05 1644.87 5.4539e-05C1736.13 4.65567e-05 1827.81 3.85372e-05 1873.66 3.45274e-05L1919.5 3.05176e-05L1919.5 250.62Z" fill="#FBFAF7"/>
<path d="M1919.5 114.318L1873.66 111.02C1827.81 107.723 1736.13 101.128 1644.87 97.1704C1553.4 92.9934 1462.56 91.6743 1371.09 97.8299C1279.83 103.986 1188.15 118.055 1096.89 122.452C1005.42 126.849 914.583 121.573 823.111 110.361C731.852 98.9292 640.166 81.3418 548.907 85.2989C457.435 89.476 366.602 114.978 275.13 125.75C183.871 136.302 92.1852 131.906 46.3424 129.707L0.499633 127.509L0.499622 0.000198369L46.3424 0.00019436C92.1852 0.00019035 183.871 0.00018233 275.13 0.000174348C366.602 0.000166347 457.435 0.000158402 548.907 0.000150401C640.166 0.000142419 731.852 0.000134399 823.111 0.000126417C914.583 0.000118416 1005.42 0.000110471 1096.89 0.00010247C1188.15 9.44877e-05 1279.83 8.64682e-05 1371.09 7.84859e-05C1462.56 7.04849e-05 1553.4 6.254e-05 1644.87 5.4539e-05C1736.13 4.65567e-05 1827.81 3.85372e-05 1873.66 3.45274e-05L1919.5 3.05176e-05L1919.5 114.318Z" fill="#FEF6DD"/>
</svg>
