<svg width="56" height="75" viewBox="0 0 56 75" fill="none" xmlns="http://www.w3.org/2000/svg">
<g clip-path="url(#clip0_106_737)">
<mask id="mask0_106_737" style="mask-type:luminance" maskUnits="userSpaceOnUse" x="0" y="0" width="56" height="75">
<path d="M31.1111 3.11886C31.1111 1.39649 32.5041 0 34.2221 0H52.8889C54.607 0 56 1.39649 56 3.11886V71.7351C56 73.4575 54.607 74.8537 52.8889 74.8537H3.11106C1.393 74.8537 0 73.4575 0 71.7349V40.5461C0 38.8235 1.393 37.4272 3.11106 37.4272H15.5557V21.8325C15.5557 20.1099 16.9485 18.7134 18.6668 18.7134H31.1111V3.11886Z" fill="white"/>
</mask>
<g mask="url(#mask0_106_737)">
<path d="M55.9998 0V74.8537H31.1108V0H55.9998Z" fill="url(#paint0_linear_106_737)"/>
</g>
<mask id="mask1_106_737" style="mask-type:luminance" maskUnits="userSpaceOnUse" x="0" y="0" width="56" height="75">
<path d="M31.1111 3.11886C31.1111 1.39649 32.5041 0 34.2221 0H52.8889C54.607 0 56 1.39649 56 3.11886V71.7351C56 73.4575 54.607 74.8537 52.8889 74.8537H3.11106C1.393 74.8537 0 73.4575 0 71.7349V40.5461C0 38.8235 1.393 37.4272 3.11106 37.4272H15.5557V21.8325C15.5557 20.1099 16.9485 18.7134 18.6668 18.7134H31.1111V3.11886Z" fill="white"/>
</mask>
<g mask="url(#mask1_106_737)">
<path d="M40.4443 22.1443V75.1657H15.5552V19.0254H37.3331C39.0511 19.0254 40.4441 20.4217 40.4441 22.1443" fill="black" fill-opacity="0.2"/>
</g>
<mask id="mask2_106_737" style="mask-type:luminance" maskUnits="userSpaceOnUse" x="0" y="0" width="56" height="75">
<path d="M31.1111 3.11886C31.1111 1.39649 32.5041 0 34.2221 0H52.8889C54.607 0 56 1.39649 56 3.11886V71.7351C56 73.4575 54.607 74.8537 52.8889 74.8537H3.11106C1.393 74.8537 0 73.4575 0 71.7349V40.5461C0 38.8235 1.393 37.4272 3.11106 37.4272H15.5557V21.8325C15.5557 20.1099 16.9485 18.7134 18.6668 18.7134H31.1111V3.11886Z" fill="white"/>
</mask>
<g mask="url(#mask2_106_737)">
<path d="M40.4443 23.3919V76.4132H15.5552V20.2728H37.3331C39.0511 20.2728 40.4441 21.6693 40.4441 23.3919" fill="black" fill-opacity="0.18"/>
</g>
<mask id="mask3_106_737" style="mask-type:luminance" maskUnits="userSpaceOnUse" x="0" y="0" width="56" height="75">
<path d="M31.1111 3.11886C31.1111 1.39649 32.5041 0 34.2221 0H52.8889C54.607 0 56 1.39649 56 3.11886V71.7351C56 73.4575 54.607 74.8537 52.8889 74.8537H3.11106C1.393 74.8537 0 73.4575 0 71.7349V40.5461C0 38.8235 1.393 37.4272 3.11106 37.4272H15.5557V21.8325C15.5557 20.1099 16.9485 18.7134 18.6668 18.7134H31.1111V3.11886Z" fill="white"/>
</mask>
<g mask="url(#mask3_106_737)">
<path d="M40.4443 21.8325V74.8537H15.5552V18.7134H37.3331C39.0511 18.7134 40.4441 20.1099 40.4441 21.8325" fill="url(#paint1_linear_106_737)"/>
</g>
<mask id="mask4_106_737" style="mask-type:luminance" maskUnits="userSpaceOnUse" x="0" y="0" width="56" height="75">
<path d="M31.1111 3.11886C31.1111 1.39649 32.5041 0 34.2221 0H52.8889C54.607 0 56 1.39649 56 3.11886V71.7351C56 73.4575 54.607 74.8537 52.8889 74.8537H3.11106C1.393 74.8537 0 73.4575 0 71.7349V40.5461C0 38.8235 1.393 37.4272 3.11106 37.4272H15.5557V21.8325C15.5557 20.1099 16.9485 18.7134 18.6668 18.7134H31.1111V3.11886Z" fill="white"/>
</mask>
<g mask="url(#mask4_106_737)">
<path d="M0 37.427V74.8538H24.8889V40.5461C24.8889 38.8235 23.4959 37.4272 21.7779 37.4272L0 37.427Z" fill="url(#paint2_linear_106_737)"/>
</g>
</g>
<defs>
<linearGradient id="paint0_linear_106_737" x1="1091.21" y1="-1.81782e-05" x2="3853.44" y2="5840.51" gradientUnits="userSpaceOnUse">
<stop stop-color="#E6AD10"/>
<stop offset="1" stop-color="#C87E0E"/>
</linearGradient>
<linearGradient id="paint1_linear_106_737" x1="1014.16" y1="18.7133" x2="3318.2" y2="4476.15" gradientUnits="userSpaceOnUse">
<stop stop-color="#F6D751"/>
<stop offset="1" stop-color="#E6AD10"/>
</linearGradient>
<linearGradient id="paint2_linear_106_737" x1="691.265" y1="37.427" x2="2094.46" y2="3354.59" gradientUnits="userSpaceOnUse">
<stop stop-color="#F9E589"/>
<stop offset="1" stop-color="#F6D751"/>
</linearGradient>
<clipPath id="clip0_106_737">
<rect width="56" height="75" fill="white"/>
</clipPath>
</defs>
</svg>
