<svg width="57" height="56" viewBox="0 0 57 56" fill="none" xmlns="http://www.w3.org/2000/svg">
<g clip-path="url(#clip0_106_760)">
<path d="M43.375 0H13.625C6.37626 0 0.5 5.87626 0.5 13.125V42.875C0.5 50.1237 6.37626 56 13.625 56H43.375C50.6237 56 56.5 50.1237 56.5 42.875V13.125C56.5 5.87626 50.6237 0 43.375 0Z" fill="#0277BD"/>
<path d="M12.2585 22.4549L12.8845 29.4422H28.521V22.4549H12.2585ZM28.5208 8.3125H11L11.6352 15.2998H28.5208V8.3125ZM28.5208 47.8715V40.6018L28.4902 40.6098L20.7083 38.5088L20.2109 32.9359H13.1967L14.1756 43.9071L28.4886 47.8804L28.5208 47.8715Z" fill="#EBEBEB"/>
<path d="M37.1007 29.4422L36.2896 38.5042L28.4966 40.6077V47.8769L42.821 43.9071L42.926 42.7265L44.5679 24.3313L44.7383 22.4549L45.9999 8.3125H28.4966V15.2998H38.3423L37.7066 22.4549H28.4966V29.4422H37.1007Z" fill="white"/>
</g>
<defs>
<clipPath id="clip0_106_760">
<rect width="56" height="56" fill="white" transform="translate(0.5)"/>
</clipPath>
</defs>
</svg>
