<svg width="29" height="28" viewBox="0 0 29 28" fill="none" xmlns="http://www.w3.org/2000/svg">
<path d="M13.0277 4.375C12.4276 4.375 11.9269 4.83364 11.8745 5.43147C11.6953 7.47631 11.6637 9.53119 11.7798 11.5801C11.4917 11.5961 11.2037 11.6145 10.9158 11.6355L9.178 11.7622C8.50798 11.811 8.13344 12.5581 8.49516 13.1242C9.7342 15.0633 11.3307 16.7491 13.1997 18.0916L13.8959 18.5917C14.257 18.8511 14.7433 18.8511 15.1044 18.5917L15.8006 18.0916C17.6695 16.7491 19.2661 15.0633 20.5051 13.1242C20.8668 12.5581 20.4923 11.811 19.8223 11.7622L18.0845 11.6355C17.7966 11.6145 17.5086 11.5961 17.2204 11.5802C17.3366 9.53119 17.305 7.4763 17.1257 5.43147C17.0733 4.83364 16.5727 4.375 15.9726 4.375H13.0277Z" fill="#2B4288"/>
</svg>
