<svg width="56" height="56" viewBox="0 0 56 56" fill="none" xmlns="http://www.w3.org/2000/svg">
<g clip-path="url(#clip0_106_710)">
<path d="M19.9062 56.4375C25.1125 56.4375 29.3125 52.2375 29.3125 47.0312V37.625H19.9062C14.7 37.625 10.5 41.825 10.5 47.0312C10.5 52.2375 14.7 56.4375 19.9062 56.4375Z" fill="#0ACF83"/>
<path d="M10.5 28.2188C10.5 23.0125 14.7 18.8125 19.9062 18.8125H29.3125V37.625H19.9062C14.7 37.625 10.5 33.425 10.5 28.2188Z" fill="#A259FF"/>
<path d="M10.5 9.40625C10.5 4.2 14.7 0 19.9062 0H29.3125V18.8125H19.9062C14.7 18.8125 10.5 14.6125 10.5 9.40625Z" fill="#F24E1E"/>
<path d="M29.3125 0H38.7188C43.925 0 48.125 4.2 48.125 9.40625C48.125 14.6125 43.925 18.8125 38.7188 18.8125H29.3125V0Z" fill="#FF7262"/>
<path d="M48.125 28.2188C48.125 33.425 43.925 37.625 38.7188 37.625C33.5125 37.625 29.3125 33.425 29.3125 28.2188C29.3125 23.0125 33.5125 18.8125 38.7188 18.8125C43.925 18.8125 48.125 23.0125 48.125 28.2188Z" fill="#1ABCFE"/>
</g>
<defs>
<clipPath id="clip0_106_710">
<rect width="56" height="56" fill="white"/>
</clipPath>
</defs>
</svg>
