<svg width="56" height="56" viewBox="0 0 56 56" fill="none" xmlns="http://www.w3.org/2000/svg">
<g clip-path="url(#clip0_106_723)">
<path d="M42.875 0H13.125C5.87626 0 0 5.87626 0 13.125V42.875C0 50.1237 5.87626 56 13.125 56H42.875C50.1237 56 56 50.1237 56 42.875V13.125C56 5.87626 50.1237 0 42.875 0Z" fill="#F03C2E"/>
<mask id="mask0_106_723" style="mask-type:luminance" maskUnits="userSpaceOnUse" x="6" y="6" width="44" height="44">
<path d="M6.125 6.125H49.875V49.875H6.125V6.125Z" fill="white"/>
</mask>
<g mask="url(#mask0_106_723)">
<path d="M49.0492 26.0518L29.9482 6.9508C29.5543 6.55654 29.0524 6.28803 28.5058 6.17927C27.9593 6.0705 27.3928 6.12638 26.878 6.33983C26.5363 6.48162 26.2259 6.68922 25.9643 6.9508L21.9994 10.9156L27.0307 15.9469C28.201 15.5367 29.5409 15.817 30.4732 16.7495C30.9171 17.1941 31.2269 17.7546 31.3674 18.367C31.5078 18.9794 31.4732 19.6189 31.2674 20.2125L36.1169 25.062C37.2901 24.6573 38.6435 24.9183 39.5799 25.8576C40.0491 26.3264 40.3685 26.924 40.4979 27.5745C40.6272 28.2251 40.5606 28.8994 40.3064 29.512C39.9658 30.3334 39.3129 30.9859 38.4913 31.3261C37.6697 31.6663 36.7467 31.6663 35.9251 31.3261C35.5182 31.1575 35.1485 30.9105 34.8372 30.599C33.8529 29.6146 33.6096 28.1654 34.1073 26.9526L29.5846 22.43V34.3315C29.9129 34.4939 30.2129 34.7081 30.4732 34.9659C31.1019 35.5946 31.4551 36.4474 31.4551 37.3366C31.4551 38.2258 31.1019 39.0785 30.4732 39.7073C29.8444 40.336 28.9916 40.6893 28.1025 40.6893C27.2133 40.6893 26.3605 40.336 25.7318 39.7073C25.2625 39.2386 24.9429 38.6412 24.8134 37.9907C24.6839 37.3403 24.7503 36.666 25.0042 36.0533C25.1728 35.6465 25.4201 35.277 25.7318 34.9659C26.0557 34.6432 26.4154 34.3985 26.8297 34.2344V22.2222C26.4185 22.0542 26.0452 21.8055 25.7318 21.4909C25.261 21.0207 24.941 20.4209 24.8124 19.7681C24.6839 19.1152 24.7526 18.4389 25.0099 17.8253L20.0471 12.8656L6.94945 25.9495C6.55515 26.3435 6.28659 26.8456 6.17776 27.3923C6.06893 27.939 6.12471 28.5057 6.33804 29.0207C6.47992 29.3626 6.68766 29.6732 6.94945 29.9349L26.0518 49.0344C26.3134 49.2959 26.6238 49.5035 26.9655 49.6453C27.656 49.9308 28.4315 49.9308 29.1219 49.6453C29.4636 49.5035 29.7741 49.2959 30.0357 49.0344L49.0492 30.051C49.311 29.7894 49.5187 29.4788 49.6604 29.1369C49.8022 28.795 49.8751 28.4285 49.8752 28.0584C49.8752 27.6883 49.8022 27.3218 49.6605 26.9798C49.5187 26.6379 49.311 26.3272 49.0492 26.0656" fill="white"/>
</g>
</g>
<defs>
<clipPath id="clip0_106_723">
<rect width="56" height="56" fill="white"/>
</clipPath>
</defs>
</svg>
