<svg width="56" height="79" viewBox="0 0 56 79" fill="none" xmlns="http://www.w3.org/2000/svg">
<g clip-path="url(#clip0_106_767)">
<path d="M55.9025 15.4862L50.8185 72.4625L27.9657 78.8004L5.17589 72.4712L0.097168 15.4862H55.9025Z" fill="#E44D26"/>
<path d="M28 73.9558L46.4662 68.8343L50.8106 20.1454H28V73.9558Z" fill="#F16529"/>
<path d="M18.117 34.1236H28.0001V27.1346H10.4819L10.6491 29.0096L12.3662 48.2694H28.0001V41.2805H18.7555L18.117 34.1236ZM19.6915 51.764H12.6784L13.6571 62.7378L27.9679 66.7119L28.0001 66.7031V59.4316L27.9695 59.4397L20.189 57.338L19.6915 51.764Z" fill="#EBEBEB"/>
<path d="M5.28955 0H8.83986V3.50904H12.0876V0H15.6382V10.6263H12.0879V7.06798H8.84008V10.6263H5.28977L5.28955 0ZM20.3067 3.52393H17.1817V0H26.9847V3.52393H23.8577V10.6263H20.3074V3.52393H20.3067ZM28.5405 0H32.2424L34.5196 3.73379L36.7946 0H40.498V10.6263H36.9621V5.35931L34.5196 9.13752H34.4583L32.0142 5.35931V10.6263H28.5405V0ZM42.2649 0H45.8163V7.11394H50.809V10.6263H42.2646L42.2649 0Z" fill="black"/>
<path d="M27.9758 48.2694H36.5786L35.7675 57.3337L27.9756 59.4375V66.7086L42.2978 62.7378L42.4028 61.557L44.0447 43.1572L44.2151 41.2805H27.9758V48.2694ZM27.9758 34.1066V34.1236H44.8508L44.9908 32.5528L45.3093 29.0096L45.4762 27.1346H27.9758V34.1066Z" fill="white"/>
</g>
<defs>
<clipPath id="clip0_106_767">
<rect width="56" height="79" fill="white"/>
</clipPath>
</defs>
</svg>
