<svg width="21" height="20" viewBox="0 0 21 20" fill="none" xmlns="http://www.w3.org/2000/svg">
<path d="M4.875 18.125H16.125" stroke="#2B4288" stroke-width="1.5" stroke-linecap="round" stroke-linejoin="round"/>
<path d="M10.5 10.625C11.8807 10.625 13 9.50571 13 8.125C13 6.74429 11.8807 5.625 10.5 5.625C9.11929 5.625 8 6.74429 8 8.125C8 9.50571 9.11929 10.625 10.5 10.625Z" stroke="#2B4288" stroke-width="1.5" stroke-linecap="round" stroke-linejoin="round"/>
<path d="M16.75 8.125C16.75 13.75 10.5 18.125 10.5 18.125C10.5 18.125 4.25 13.75 4.25 8.125C4.25 6.4674 4.90848 4.87769 6.08058 3.70558C7.25269 2.53348 8.8424 1.875 10.5 1.875C12.1576 1.875 13.7473 2.53348 14.9194 3.70558C16.0915 4.87769 16.75 6.4674 16.75 8.125V8.125Z" stroke="#2B4288" stroke-width="1.5" stroke-linecap="round" stroke-linejoin="round"/>
</svg>
